<svg
    xmlns="http://www.w3.org/2000/svg"
    viewBox="0 0 15264 14534"
    id="vector">
    <path
        id="path"
        d="M 7632.1 499.5 C 5407.2 499.5 3237.9 499.5 1013 499.5 C 661.1 499.5 447.4 732.6 499.5 966.6 C 1191.5 2930 1750.6 5319.4 1975.2 7456.2 C 2248.8 10058.8 2066.8 12250.6 2139 12858.5 C 2265.3 13666.2 2918.4 13992.7 3775.3 14035.4 L 7632 14035.4 L 11488.7 14035.4 C 12345.5 13992.6 12998.7 13666.1 13125 12858.5 C 13197.2 12250.6 13015.2 10058.8 13288.8 7456.2 C 13513.5 5319.3 14072.5 2930 14764.5 966.6 C 14816.6 732.5 14602.9 499.5 14251 499.5 C 12026.1 499.5 9856.8 499.5 7631.9 499.5 Z"
        fill="none"
        stroke="#000000"
        stroke-width="300"/>
    <path
        id="path_1"
        d="M 13518.9 1384.9 L 7632.2 1384.9 L 1745.5 1384.9 C 2449.1 2997.6 2763 5791.8 3500.7 9108.8 C 3940.1 10737.1 5661.5 11431.5 7632.2 11493.1 C 9603 11431.5 11324.4 10737 11763.7 9108.8 C 12501.4 5791.8 12815.3 2997.6 13518.9 1384.9 Z"
        fill="none"
        stroke="#000000"
        stroke-width="300"/>
</svg>
